<svg width="135" height="89" viewBox="0 0 135 89" fill="none" xmlns="http://www.w3.org/2000/svg">
<path d="M14.5133 74.132C14.2255 73.8628 13.8418 73.6745 13.3073 73.4861C11.7313 72.9479 8.88068 72.5307 4.68702 72.1809C4.24847 72.0463 3.96067 71.8579 3.78251 71.6292C3.59064 71.4004 3.49471 71.1313 3.49471 70.7546C3.50842 70.1491 3.7414 69.7185 4.37181 69.3148C4.98853 68.9246 6.00268 68.6285 7.38686 68.4805H8.57917C10.1141 68.4805 11.2105 68.8438 11.9779 69.5032C12.1835 69.9607 12.4028 70.3105 12.6632 70.5931C12.9373 70.8757 13.2799 71.0775 13.6773 71.0775H14.0063C14.3763 71.0775 14.7326 70.9564 15.0204 70.7411C15.3082 70.5124 15.5001 70.1894 15.6371 69.8261L15.6645 69.7588V69.3552V69.2744L15.6371 69.1937C15.1437 67.9154 14.2803 66.9197 13.088 66.2872C11.8957 65.6414 10.3882 65.3453 8.59288 65.3453H6.67421H6.6331C4.53627 65.7221 2.91911 66.3276 1.80903 67.2157C0.685237 68.0903 0.0959332 69.2879 0.0959332 70.6604C0.0959332 71.4812 0.232981 72.2078 0.52078 72.8267C0.794875 73.4188 1.23343 73.9032 1.79532 74.2396C2.17905 74.6836 2.79577 74.9393 3.70028 75.195C4.65961 75.4641 5.93416 75.6794 7.56502 75.8543H7.59243H7.61984C9.42887 75.8543 10.7719 76.0158 11.6079 76.3118C12.0191 76.4598 12.3069 76.6347 12.4713 76.8097C12.6358 76.9846 12.6906 77.1461 12.7043 77.3748V78.1283C12.348 78.8011 11.8546 79.299 11.2105 79.6488C10.539 79.9987 9.67555 80.1871 8.60658 80.1871H7.61984C5.93416 80.1871 4.6185 79.7699 3.57694 78.9626C3.38507 78.4109 3.1795 77.9669 2.90541 77.6439C2.61761 77.2941 2.22017 77.0384 1.76791 77.0384H1.7405H1.71309C1.21972 77.1057 0.80858 77.2402 0.493371 77.4959C0.178162 77.7516 0 78.1552 0 78.5589V78.6531C0.0137047 79.003 0.123343 79.4201 0.356323 80.0929L0.370028 80.1467L0.397438 80.1871C1.09638 81.2366 2.09683 82.0305 3.38507 82.5418C4.67332 83.0531 6.22196 83.3088 8.05839 83.3088H8.27767C9.5248 83.3088 10.7171 83.1204 11.8409 82.7437C13.2114 82.2862 14.2803 81.6807 15.0067 80.8733C15.7468 80.0794 16.1168 79.0971 16.1168 77.9938V77.3344C16.0757 76.1503 15.5275 75.0335 14.5133 74.132Z" fill="white"/>
<path d="M20.7215 61.1069C20.4474 60.8647 20.0774 60.7436 19.6662 60.6898H19.6388H19.3784H19.351H19.3236C18.9125 60.7436 18.5424 60.8647 18.2684 61.1069C17.9806 61.3492 17.8435 61.7125 17.8435 62.0758V81.8154C17.8435 82.1787 17.9806 82.5555 18.2409 82.8111C18.5013 83.0668 18.8577 83.2283 19.2825 83.3225L19.351 83.3359H19.4196C19.9129 83.2956 20.3378 83.1879 20.6667 82.9188C20.9956 82.6631 21.1601 82.246 21.1601 81.8289V62.0758C21.1601 61.7125 21.0093 61.3492 20.7215 61.1069Z" fill="white"/>
<path d="M40.3604 70.9295L40.3467 70.8892C39.4285 69.113 38.3184 67.7405 37.0027 66.8255C35.6734 65.9105 34.1384 65.4396 32.439 65.4396H31.1097C30.7259 65.4396 30.1229 65.5203 29.2732 65.6549L29.2321 65.6683L29.191 65.6818C27.1079 66.4757 25.5181 67.5521 24.4492 68.9515C23.3802 70.3509 22.8457 72.0598 22.8457 73.9975V74.751C22.8457 75.6929 22.9553 76.4599 23.202 77.0654C23.8736 79.1107 24.9151 80.685 26.3404 81.7346C27.7657 82.7976 29.5747 83.3089 31.6853 83.3089H32.2335H32.2472H32.2609C34.111 83.1609 35.5774 82.8514 36.6601 82.3266C37.7428 81.8153 38.4828 81.0348 38.7158 80.0526L38.7295 79.9988V79.9449C38.7295 79.5816 38.5925 79.2049 38.3321 78.9492C38.0717 78.6935 37.7154 78.5321 37.2905 78.4379L37.2083 78.4244L36.5505 78.5321L36.4408 78.5455L36.3449 78.6128C35.0566 79.6354 33.6313 80.1468 32.0005 80.1468H31.4386C30.9041 80.1468 30.2189 80.0122 29.424 79.7431C28.3276 79.1376 27.5327 78.4917 27.0119 77.8324C26.6008 77.3076 26.3678 76.7828 26.2856 76.2446H39.0995H39.1269C39.6477 76.1773 40.0863 76.0293 40.4289 75.7467C40.7715 75.4776 40.9497 75.047 40.936 74.6164C40.936 73.4323 40.7441 72.2078 40.3741 70.9161L40.3604 70.9295ZM26.3404 72.6115C26.8064 71.2256 27.4916 70.2298 28.3824 69.584C29.2732 68.9246 30.3833 68.5882 31.7812 68.5882C32.5624 68.5882 33.2476 68.6959 33.8369 68.8843C35.1389 69.4763 36.0982 70.1895 36.7149 70.9968C37.2494 71.6965 37.5509 72.477 37.6331 73.365H26.2034C26.2171 73.1632 26.2582 72.9075 26.3404 72.6115Z" fill="white"/>
<path d="M59.5745 70.9295L59.5608 70.8892C58.6563 69.113 57.5325 67.7405 56.2168 66.8255C54.8875 65.9105 53.3525 65.4396 51.6531 65.4396H50.3238C49.9263 65.4396 49.337 65.5203 48.4873 65.6549L48.4462 65.6683L48.4051 65.6818C46.322 66.4757 44.7322 67.5521 43.6633 68.9515C42.5943 70.3509 42.0598 72.0598 42.0598 73.9975V74.751C42.0598 75.6929 42.1694 76.4599 42.4161 77.0654C43.0877 79.1107 44.1292 80.685 45.5545 81.7346C46.9798 82.7976 48.7888 83.3089 50.8994 83.3089H51.4476H51.4613H51.475C53.3251 83.1609 54.7915 82.8514 55.8742 82.3266C56.9569 81.8153 57.6969 81.0348 57.9299 80.0526L57.9436 79.9988V79.9449C57.9436 79.5816 57.8066 79.2049 57.5462 78.9492C57.2858 78.6935 56.9295 78.5321 56.5046 78.4379L56.4224 78.4244L55.7646 78.5321L55.6549 78.5455L55.559 78.6128C54.2708 79.6354 52.8455 80.1468 51.2146 80.1468H50.6527C50.1182 80.1468 49.433 80.0122 48.6381 79.7431C47.5417 79.1376 46.7468 78.4917 46.2261 77.8324C45.8149 77.3076 45.5819 76.7828 45.4997 76.2446H58.3137H58.3411C58.8618 76.1773 59.3004 76.0293 59.643 75.7467C59.9856 75.4776 60.1638 75.047 60.1638 74.6164C60.1638 73.4323 59.9719 72.2078 59.6019 70.9161L59.5745 70.9295ZM45.5408 72.6115C46.0068 71.239 46.692 70.2433 47.5828 69.584C48.4736 68.9246 49.5837 68.5882 50.9816 68.5882C51.7628 68.5882 52.448 68.6959 53.0373 68.8843C54.3393 69.4763 55.2986 70.1895 55.9153 70.9968C56.4498 71.6965 56.7513 72.477 56.8335 73.365H45.4038C45.4175 73.1632 45.4723 72.9075 45.5408 72.6115Z" fill="white"/>
<path d="M78.2131 70.0148L78.1994 69.9879C76.2945 66.8796 73.7728 65.238 70.7577 65.238H69.6477C67.9072 65.2245 66.3996 65.9242 65.2347 67.2294V66.745C65.2347 66.3952 65.1114 66.0588 64.851 65.8031C64.6043 65.5609 64.2617 65.4129 63.878 65.3322L63.8368 65.3187H63.7957C63.2475 65.3187 62.7542 65.4533 62.4116 65.8031C62.0689 66.153 61.9319 66.6374 61.9319 67.1756V87.0363V87.0497C61.973 87.5341 62.0963 87.9378 62.3704 88.2607C62.6308 88.5837 63.0557 88.7452 63.4805 88.7452H63.8094C64.2069 88.7452 64.6043 88.624 64.8784 88.3549C65.1525 88.0858 65.3033 87.7091 65.3581 87.2919V87.265V81.4791C66.5915 82.7035 68.2361 83.3225 70.2095 83.3225H70.2233H70.237C71.4156 83.2552 72.4845 83.0668 73.4439 82.7574H73.4576L73.4713 82.7439C75.3762 81.9365 76.8289 80.8332 77.802 79.4338C78.775 78.0344 79.2547 76.3524 79.2547 74.4282C79.2547 73.0827 78.9121 71.616 78.2405 70.0282L78.2131 70.0148ZM69.7984 80.0797C68.2498 79.7836 67.1397 79.2454 66.427 78.5053C65.7007 77.7653 65.3444 76.8099 65.3307 75.5316V73.2441C65.3307 72.8136 65.3581 72.383 65.4266 71.9389C65.8377 70.7145 66.4407 69.8398 67.2356 69.2612C68.0305 68.6826 69.0309 68.3732 70.2781 68.3732L71.1963 68.4808C72.7723 68.9652 73.9098 69.7053 74.6773 70.6741C75.4311 71.6429 75.8285 72.8808 75.8285 74.4282C75.76 75.0741 75.6915 75.6124 75.5955 76.016C75.5133 76.4197 75.4037 76.7157 75.3214 76.8234L75.3077 76.8368L75.294 76.8503C74.7458 77.9537 74.0469 78.7475 73.2109 79.2723C72.3749 79.7971 71.3745 80.0662 70.1684 80.0662H69.7984V80.0797Z" fill="white"/>
<path d="M95.8647 74.132C95.5769 73.8628 95.1795 73.661 94.6587 73.4861C93.0826 72.9479 90.232 72.5307 86.0247 72.1809C85.5861 72.0463 85.2983 71.8579 85.1202 71.6292C84.9283 71.4004 84.8324 71.1313 84.8324 70.7546C84.8461 70.1491 85.079 69.7185 85.7095 69.3148C86.3262 68.9246 87.3403 68.6285 88.7245 68.4805H89.9168C91.4518 68.4805 92.5481 68.8438 93.3156 69.5032C93.5212 69.9607 93.7405 70.3105 94.0008 70.5931C94.2749 70.8757 94.6176 71.0775 95.015 71.0775H95.3439C95.7139 71.0775 96.0703 70.9564 96.3581 70.7411C96.6459 70.5124 96.8377 70.1894 96.9748 69.8261L97.0022 69.7588V69.3552V69.2744L96.9748 69.1937C96.4814 67.9154 95.618 66.9197 94.4257 66.2872C93.2334 65.6414 91.7259 65.3453 89.9305 65.3453H88.0119H87.9708C85.8739 65.7221 84.2568 66.3276 83.1467 67.2157C82.0229 68.0903 81.4336 69.2879 81.4336 70.6604C81.4336 71.4812 81.5706 72.2078 81.8584 72.8267C82.1462 73.4188 82.5711 73.9032 83.133 74.2396C83.5167 74.6836 84.1334 74.9393 85.0379 75.195C85.9973 75.4641 87.2718 75.6794 88.9027 75.8543H88.9301H88.9575C90.7665 75.8543 92.1096 76.0158 92.9456 76.3118C93.3567 76.4598 93.6445 76.6347 93.809 76.8097C93.9734 76.9846 94.0283 77.1461 94.042 77.3748V78.1283C93.6856 78.8011 93.1923 79.299 92.5481 79.6488C91.8766 79.9987 91.0132 80.1871 89.9442 80.1871H88.9575C87.2718 80.1871 85.9562 79.7699 84.9146 78.9626C84.7227 78.4109 84.5172 77.9669 84.2431 77.6439C83.9553 77.2941 83.5578 77.0384 83.1056 77.0384H83.0782H83.0507C82.5574 77.1057 82.1462 77.2402 81.831 77.4959C81.5158 77.7516 81.3376 78.1552 81.3376 78.5589V78.6531C81.3514 79.003 81.4747 79.4201 81.694 80.0929L81.7077 80.1467L81.7351 80.1871C82.434 81.2366 83.4345 82.0305 84.7227 82.5418C86.011 83.0531 87.5596 83.3088 89.3823 83.3088H89.6016C90.8487 83.3088 92.0411 83.1204 93.1648 82.7437C94.5353 82.2862 95.6043 81.6807 96.3307 80.8733C97.0707 80.0794 97.4407 79.0971 97.4407 77.9938V77.3344C97.427 76.1503 96.8788 75.0335 95.8647 74.132Z" fill="white"/>
<path d="M108.679 79.6889L108.583 79.6485H108.364H108.295L108.227 79.6754C107.116 80.0253 106.294 80.1867 105.856 80.1867C105.595 80.1598 105.403 80.1329 105.28 80.106V79.8638H104.841C104.745 79.8638 104.704 79.8504 104.595 79.7293C104.444 79.5678 104.252 79.1372 104.142 78.4779C104.019 77.8185 103.964 76.9439 103.964 75.8405V68.561H107.199H107.226C107.651 68.5071 108.007 68.386 108.295 68.1438C108.583 67.9016 108.734 67.5383 108.72 67.175V66.9597C108.72 66.5964 108.583 66.2197 108.295 65.9775C108.021 65.7353 107.651 65.6141 107.226 65.5469H107.199H103.964V62.0753C103.964 61.6985 103.8 61.3218 103.512 61.0796C103.224 60.8239 102.854 60.6759 102.402 60.5817L102.361 60.5682H102.306C101.881 60.5682 101.484 60.7028 101.196 60.9988C100.908 61.2814 100.744 61.6716 100.661 62.1291V62.1695V65.5603H98.8936C98.4961 65.5603 98.0987 65.6814 97.8246 65.964C97.5505 66.2331 97.4135 66.6099 97.3586 67.027V67.0539V67.2019C97.3586 67.5652 97.4957 67.9285 97.7835 68.1707C98.0576 68.4129 98.4276 68.534 98.8388 68.5879H98.8662H100.661V77.1457C100.661 78.0069 100.771 78.9219 101.004 79.8638V79.8907L101.018 79.9176C101.456 81.021 102.087 81.8822 102.923 82.4608C103.759 83.0394 104.787 83.3219 105.952 83.3219H106.184H106.198H106.212C107.308 83.2412 108.158 83.0663 108.788 82.7164C109.104 82.555 109.364 82.3397 109.542 82.0706C109.72 81.8014 109.816 81.4785 109.816 81.1556C109.816 80.8326 109.707 80.5231 109.501 80.2809C109.282 80.0387 109.008 79.8503 108.679 79.6889Z" fill="white"/>
<path d="M114.599 66.0046C114.284 65.749 113.873 65.6682 113.407 65.6548C112.872 65.6413 112.365 65.8566 112.05 66.2603C111.749 66.664 111.625 67.1887 111.625 67.8212V81.1559C111.625 81.7883 111.735 82.3131 112.05 82.7168C112.352 83.1204 112.872 83.3357 113.407 83.3223C113.873 83.3223 114.27 83.2415 114.599 82.9859C114.928 82.7302 115.079 82.3265 115.065 81.9229V67.0676C115.065 66.664 114.928 66.2603 114.599 66.0046Z" fill="white"/>
<path d="M114.64 61.0532C114.339 60.7168 113.886 60.5553 113.407 60.5688C112.941 60.5688 112.489 60.7302 112.173 61.0532C111.872 61.3761 111.707 61.8202 111.639 62.3449V62.3718V63.4887V63.5021V63.5156C111.68 64 111.803 64.4037 112.077 64.7266C112.338 65.0495 112.763 65.211 113.188 65.211H113.64C114.065 65.211 114.49 65.0495 114.75 64.7266C115.024 64.4037 115.134 64 115.175 63.5156V63.5021V62.3853V62.3584V62.3315C115.093 61.8336 114.942 61.3896 114.64 61.0532Z" fill="white"/>
<path d="M133.608 65.9641C133.333 65.695 132.95 65.5469 132.525 65.4931H132.497H132.127C131.757 65.4931 131.401 65.6142 131.141 65.8699C130.88 66.1255 130.757 66.4619 130.702 66.8522V66.8791V67.2827C129.496 65.9641 127.879 65.2778 125.96 65.2778H125.727C124.946 65.2778 124.11 65.3855 123.192 65.6142H123.164L123.137 65.6277C121.054 66.4216 119.464 67.5249 118.395 68.9378C117.326 70.3507 116.792 72.073 116.792 74.051V74.818C116.792 75.7733 116.943 76.7018 117.271 77.5629V77.5764V77.5899C118.066 79.4871 119.149 80.9538 120.533 81.9226C121.917 82.9049 123.589 83.3893 125.508 83.3893C127.564 83.3893 129.291 82.8242 130.592 81.667V87.278C130.592 87.7086 130.757 88.1123 131.072 88.3948C131.387 88.6774 131.812 88.8254 132.306 88.9062H132.333H132.36C132.772 88.9062 133.183 88.7716 133.47 88.4756C133.758 88.193 133.923 87.8028 134.005 87.3587L134.019 87.3184V67.0271C134.032 66.6234 133.895 66.2466 133.608 65.9641ZM125.809 80.1465H125.659C123.781 79.9043 122.424 79.3257 121.547 78.4779C120.67 77.6302 120.218 76.473 120.218 74.9256V74.0644C120.218 73.7684 120.245 73.432 120.314 73.0822C120.794 71.5213 121.479 70.391 122.328 69.651C123.192 68.9109 124.22 68.5476 125.522 68.5341H125.947C127.564 68.736 128.729 69.2204 129.469 69.947C130.222 70.6736 130.592 71.6424 130.606 72.988V75.6926C130.606 77.0247 130.209 77.9935 129.441 78.7201C128.674 79.4333 127.481 79.9312 125.809 80.1465Z" fill="white"/>
<path d="M78.1171 52.168C74.2113 49.8133 70.6069 46.0591 67.8523 41.5111C65.2484 37.2321 63.4394 32.24 62.7678 27.1134H69.7572C69.7435 27.396 69.7435 27.6785 69.7435 27.9611C69.7435 33.2358 71.2648 39.4389 73.9509 44.9154C75.294 47.6469 76.9385 50.2035 78.8435 52.3429C78.9942 52.5044 79.145 52.6659 79.2957 52.8273C78.8983 52.6121 78.5009 52.3968 78.1171 52.168Z" fill="#8FE2FF"/>
<path d="M80.666 50.6476C78.0758 47.7546 75.9379 43.8793 74.4715 39.8291C73.0051 35.7789 72.2102 31.5404 72.2102 27.9477C72.2102 27.6517 72.2376 27.3825 72.2513 27.1H79.5559C78.8844 30.1544 78.5829 33.0609 78.5829 35.8193C78.5829 42.1704 80.2138 47.7142 82.6395 52.5852C81.9543 52.0066 81.2965 51.3607 80.666 50.6476Z" fill="#8FE2FF"/>
<path d="M52.2151 27.1H60.2598C61.1643 34.689 64.4397 41.8879 68.9623 47.3778C70.785 49.5846 72.8133 51.5222 74.9924 53.0831C70.1409 51.4415 65.9884 48.7638 62.5759 45.4671C57.2173 40.3001 53.6952 33.5857 52.2151 27.1Z" fill="#8FE2FF"/>
<path d="M47.0895 24.0317C46.9388 23.1167 46.8565 22.1883 46.8565 21.2329C46.8565 20.6678 46.884 20.1026 46.9388 19.5375L46.9799 19.0127L46.4454 19.0531C45.0201 19.1742 43.8004 19.5106 42.7725 19.995L42.9644 20.3986L42.7725 19.995C41.4843 20.587 40.4838 21.3809 39.7027 22.2017C39.1545 22.7669 38.7296 23.3455 38.4007 23.8568L37.9622 24.543H47.1855L47.0895 24.0317Z" fill="#FC5959"/>
<path d="M48.4462 29.7776C48.131 28.7415 47.8569 27.7054 47.6377 26.6693L47.5554 26.3195H41.032L41.6213 27.0461C42.3339 27.9207 43.3755 28.8895 44.8693 29.5623C45.7464 29.9525 46.7743 30.2351 47.9803 30.3427L48.6518 30.3965L48.4462 29.7776Z" fill="#FC5959"/>
<path d="M53.1195 14.4243C54.1747 14.8011 55.23 14.9895 56.2441 14.9895C57.8476 14.9895 59.3825 14.5185 60.7393 13.6708C61.3697 13.2806 61.5616 12.4598 61.1641 11.8274C60.7667 11.2084 59.9307 11.02 59.2866 11.4102C58.2998 12.0158 57.3131 12.3118 56.2441 12.3118C55.5589 12.3118 54.8326 12.1907 54.0377 11.9081C53.325 11.6524 52.5576 12.0158 52.2972 12.7155C52.0505 13.4152 52.4068 14.1821 53.1195 14.4243Z" fill="#12305B"/>
<path d="M104.129 33.6663C104.088 33.451 103.882 33.3165 103.663 33.3569L97.2352 34.5275L98.5234 29.6027L98.0849 29.4547L95.7688 34.7966L93.9049 35.133C93.7542 35.1599 93.6171 35.2407 93.5212 35.3618L93.5075 35.3752L90.2869 39.2505H81.1595C80.9676 37.7838 80.8717 36.2768 80.8717 34.7159C80.8717 31.5134 81.2966 28.0957 82.2559 24.4222C82.6533 22.8748 82.6807 21.3947 82.8315 20.0087C82.9 19.3494 82.9411 18.6901 82.9411 18.0307C82.9411 12.9983 80.8854 8.47714 77.5003 5.2343C74.129 1.978 69.4419 0 64.2067 0C58.6015 0 53.8734 2.48932 50.639 6.21657C48.364 8.82699 46.8017 12.0295 46.0616 15.4338C44.0196 15.5145 42.2654 15.9855 40.8127 16.6852C38.4007 17.8424 36.8109 19.5781 35.8379 21.0045C34.8649 22.4308 34.4674 23.5611 34.44 23.6418L33.8507 25.391H37.8662C38.2225 26.0369 38.8255 26.9654 39.7712 27.9207C40.5935 28.755 41.6898 29.5892 43.074 30.2082C44.4582 30.8272 46.1439 31.2443 48.1037 31.2443C49.1589 33.9758 50.5294 36.667 52.2151 39.237H26.8065C26.0664 39.237 25.4497 39.8291 25.4497 40.5692C25.4497 41.2958 26.0527 41.9013 26.8065 41.9013H54.12C55.4905 43.6774 57.0117 45.3594 58.6837 46.9337C65.4813 53.2983 74.869 57.6849 86.4084 57.6849C86.9018 57.6849 87.3678 57.4158 87.6007 56.9852C87.8337 56.5546 87.82 56.0298 87.5459 55.6262C84.8598 51.5222 82.6944 47.0145 81.6255 41.9013H101.004C101.744 41.9013 102.361 41.3092 102.361 40.5692C102.361 39.8425 101.758 39.237 101.004 39.237H92.1233L94.4668 36.4248L103.841 34.1238C104.033 34.0566 104.17 33.8682 104.129 33.6663ZM37.9347 22.7133C38.2499 22.2155 38.6611 21.6638 39.1819 21.1256C39.9356 20.3451 40.895 19.5781 42.1284 19.013C43.1151 18.5555 44.2663 18.2326 45.6505 18.1115C45.5957 18.6901 45.5683 19.2687 45.5683 19.8473C45.5683 20.8161 45.6505 21.7714 45.8013 22.7133H37.9347ZM44.2252 27.7727C42.8136 27.1403 41.8269 26.2118 41.1416 25.3776H46.3632C46.5961 26.4271 46.8565 27.4632 47.1854 28.5128C46.0205 28.4186 45.0475 28.1495 44.2252 27.7727ZM48.5559 22.7133C48.3778 21.7849 48.2818 20.8295 48.2818 19.8473C48.2818 15.4741 49.899 11.1414 52.6947 7.93891C55.5042 4.73643 59.4238 2.66424 64.193 2.65079C68.7156 2.65079 72.7174 4.35967 75.5954 7.1181C78.4734 9.88999 80.2139 13.698 80.2139 18.0038C80.2139 18.5555 80.1865 19.1207 80.1179 19.6992C80.0083 20.8026 79.9535 21.8118 79.8164 22.7268H48.9533V22.7133H48.5559ZM60.5613 44.9692C54.6545 39.4523 50.7624 32.3073 49.1452 25.391H58.0122C59.0126 33.478 62.6033 41.1343 67.5918 46.9876C69.6064 49.3423 71.8403 51.4011 74.2386 53.0696C68.8938 51.3338 64.3164 48.4811 60.5613 44.9692ZM77.6511 52.1008C73.3478 49.598 69.3734 45.5882 66.3447 40.7441C63.4804 36.1826 61.4795 30.8675 60.7531 25.4045H68.4552C68.4415 25.7005 68.4415 26.01 68.4415 26.306C68.4415 31.9171 70.1135 38.5373 73.06 44.3637C74.5401 47.2836 76.3491 49.9882 78.4597 52.2757C78.6241 52.4506 78.7886 52.6255 78.953 52.787C78.5145 52.5852 78.0896 52.3564 77.6511 52.1008ZM80.4606 50.4995C77.5963 47.4181 75.2528 43.2872 73.6356 38.9679C72.0184 34.6486 71.1413 30.1409 71.1413 26.3195C71.1413 26.01 71.1687 25.714 71.1824 25.418H79.2271C78.4871 28.6742 78.1582 31.7691 78.1582 34.7024C78.1582 41.4707 79.9535 47.3778 82.6396 52.5717C81.8859 51.9393 81.1595 51.253 80.4606 50.4995Z" fill="white"/>
<path d="M104.636 35.9C102.594 36.4114 101.456 35.5636 101.114 34.2584C100.785 32.9532 101.388 31.6884 103.43 31.1905C105.472 30.6927 108.528 32.4554 108.528 32.4554C108.528 32.4554 106.692 35.4022 104.636 35.9Z" fill="#83CC1B"/>
<path d="M100.881 29.6968C100.045 31.446 98.7564 31.769 97.6052 31.2307C96.454 30.706 95.8647 29.5219 96.7007 27.7726C97.5367 26.0234 100.62 24.8931 100.62 24.8931C100.62 24.8931 101.717 27.9475 100.881 29.6968Z" fill="#83CC1B"/>
</svg>
